<?xml version="1.0" encoding="utf-8" ?>
<svg baseProfile="tiny" height="1760" version="1.2" width="1335" xmlns="http://www.w3.org/2000/svg" xmlns:ev="http://www.w3.org/2001/xml-events" xmlns:xlink="http://www.w3.org/1999/xlink"><defs /><line stroke="rgb(0%,0%,0%)" x1="583.0" x2="728.0" y1="1397.0" y2="1389.0" /><line stroke="rgb(0%,0%,0%)" x1="575.0" x2="820.0" y1="35.0" y2="22.0" /><line stroke="rgb(0%,0%,0%)" x1="728.0" x2="997.0" y1="780.0" y2="757.0" /><line stroke="rgb(0%,0%,0%)" x1="496.0" x2="504.0" y1="702.0" y2="857.0" /><line stroke="rgb(0%,0%,0%)" x1="531.0" x2="774.0" y1="30.0" y2="22.0" /><line stroke="rgb(0%,0%,0%)" x1="726.0" x2="748.0" y1="1392.0" y2="1594.0" /><line stroke="rgb(0%,0%,0%)" x1="728.0" x2="1005.0" y1="784.0" y2="760.0" /><line stroke="rgb(0%,0%,0%)" x1="1015.0" x2="1019.0" y1="296.0" y2="433.0" /><line stroke="rgb(0%,0%,0%)" x1="1015.0" x2="1017.0" y1="384.0" y2="435.0" /><line stroke="rgb(0%,0%,0%)" x1="895.0" x2="933.0" y1="1383.0" y2="1380.0" /><line stroke="rgb(0%,0%,0%)" x1="537.0" x2="540.0" y1="951.0" y2="1027.0" /><line stroke="rgb(0%,0%,0%)" x1="482.0" x2="814.0" y1="39.0" y2="22.0" /><line stroke="rgb(0%,0%,0%)" x1="477.0" x2="484.0" y1="354.0" y2="542.0" /><line stroke="rgb(0%,0%,0%)" x1="1009.0" x2="1146.0" y1="233.0" y2="221.0" /><line stroke="rgb(0%,0%,0%)" x1="996.0" x2="1014.0" y1="842.0" y2="1088.0" /><line stroke="rgb(0%,0%,0%)" x1="910.0" x2="933.0" y1="1377.0" y2="1707.0" /><line stroke="rgb(0%,0%,0%)" x1="528.0" x2="531.0" y1="626.0" y2="664.0" /><line stroke="rgb(0%,0%,0%)" x1="490.0" x2="496.0" y1="651.0" y2="836.0" /><line stroke="rgb(0%,0%,0%)" x1="1000.0" x2="1220.0" y1="16.0" y2="4.0" /><line stroke="rgb(0%,0%,0%)" x1="1238.0" x2="1245.0" y1="91.0" y2="192.0" /><line stroke="rgb(0%,0%,0%)" x1="902.0" x2="1189.0" y1="1378.0" y2="1368.0" /><line stroke="rgb(0%,0%,0%)" x1="560.0" x2="568.0" y1="1088.0" y2="1201.0" /><line stroke="rgb(0%,0%,0%)" x1="558.0" x2="562.0" y1="1083.0" y2="1157.0" /><line stroke="rgb(0%,0%,0%)" x1="1241.0" x2="1252.0" y1="612.0" y2="776.0" /><line stroke="rgb(0%,0%,0%)" x1="791.0" x2="977.0" y1="860.0" y2="840.0" /><line stroke="rgb(0%,0%,0%)" x1="795.0" x2="1009.0" y1="864.0" y2="842.0" /><line stroke="rgb(0%,0%,0%)" x1="518.0" x2="530.0" y1="948.0" y2="1088.0" /><line stroke="rgb(0%,0%,0%)" x1="544.0" x2="549.0" y1="850.0" y2="937.0" /><line stroke="rgb(0%,0%,0%)" x1="732.0" x2="750.0" y1="1398.0" y2="1602.0" /><line stroke="rgb(0%,0%,0%)" x1="1324.0" x2="1327.0" y1="1267.0" y2="1356.0" /><line stroke="rgb(0%,0%,0%)" x1="1009.0" x2="1243.0" y1="236.0" y2="216.0" /><line stroke="rgb(0%,0%,0%)" x1="1239.0" x2="1248.0" y1="609.0" y2="789.0" /><line stroke="rgb(0%,0%,0%)" x1="1147.0" x2="1150.0" y1="424.0" y2="569.0" /><line stroke="rgb(0%,0%,0%)" x1="942.0" x2="995.0" y1="1372.0" y2="1370.0" /><line stroke="rgb(0%,0%,0%)" x1="1165.0" x2="1312.0" y1="1187.0" y2="1177.0" /><line stroke="rgb(0%,0%,0%)" x1="591.0" x2="601.0" y1="1187.0" y2="1279.0" /><line stroke="rgb(0%,0%,0%)" x1="1010.0" x2="1012.0" y1="237.0" y2="348.0" /><line stroke="rgb(0%,0%,0%)" x1="1152.0" x2="1152.0" y1="881.0" y2="791.0" /><line stroke="rgb(0%,0%,0%)" x1="915.0" x2="1017.0" y1="103.0" y2="103.0" /><line stroke="rgb(0%,0%,0%)" x1="574.0" x2="577.0" y1="1155.0" y2="1184.0" /><line stroke="rgb(0%,0%,0%)" x1="1271.0" x2="1303.0" y1="1361.0" y2="1360.0" /><line stroke="rgb(0%,0%,0%)" x1="793.0" x2="927.0" y1="1740.0" y2="1735.0" /><line stroke="rgb(0%,0%,0%)" x1="1236.0" x2="1240.0" y1="92.0" y2="218.0" /><line stroke="rgb(0%,0%,0%)" x1="1148.0" x2="1158.0" y1="423.0" y2="617.0" /><line stroke="rgb(0%,0%,0%)" x1="908.0" x2="918.0" y1="1395.0" y2="1531.0" /><line stroke="rgb(0%,0%,0%)" x1="915.0" x2="1025.0" y1="100.0" y2="98.0" /><line stroke="rgb(0%,0%,0%)" x1="467.0" x2="474.0" y1="63.0" y2="266.0" /><line stroke="rgb(0%,0%,0%)" x1="495.0" x2="503.0" y1="702.0" y2="857.0" /><line stroke="rgb(0%,0%,0%)" x1="603.0" x2="786.0" y1="1397.0" y2="1391.0" /><line stroke="rgb(0%,0%,0%)" x1="911.0" x2="1189.0" y1="1376.0" y2="1367.0" /><line stroke="rgb(0%,0%,0%)" x1="728.0" x2="749.0" y1="1394.0" y2="1600.0" /><line stroke="rgb(0%,0%,0%)" x1="768.0" x2="917.0" y1="1747.0" y2="1739.0" /><line stroke="rgb(0%,0%,0%)" x1="957.0" x2="1042.0" y1="514.0" y2="513.0" /><line stroke="rgb(0%,0%,0%)" x1="517.0" x2="528.0" y1="941.0" y2="1088.0" /><line stroke="rgb(0%,0%,0%)" x1="1006.0" x2="1018.0" y1="923.0" y2="1091.0" /><line stroke="rgb(0%,0%,0%)" x1="1240.0" x2="1249.0" y1="618.0" y2="788.0" /><line stroke="rgb(0%,0%,0%)" x1="542.0" x2="547.0" y1="850.0" y2="937.0" /><line stroke="rgb(0%,0%,0%)" x1="473.0" x2="475.0" y1="42.0" y2="62.0" /><line stroke="rgb(0%,0%,0%)" x1="489.0" x2="491.0" y1="647.0" y2="755.0" /><line stroke="rgb(0%,0%,0%)" x1="1313.0" x2="1326.0" y1="1177.0" y2="1356.0" /><line stroke="rgb(0%,0%,0%)" x1="1015.0" x2="1015.0" y1="280.0" y2="252.0" /><line stroke="rgb(0%,0%,0%)" x1="962.0" x2="1042.0" y1="511.0" y2="510.0" /><line stroke="rgb(0%,0%,0%)" x1="539.0" x2="601.0" y1="1387.0" y2="1385.0" /><line stroke="rgb(0%,0%,0%)" x1="1149.0" x2="1159.0" y1="423.0" y2="617.0" /><line stroke="rgb(0%,0%,0%)" x1="1071.0" x2="1220.0" y1="8.0" y2="3.0" /><line stroke="rgb(0%,0%,0%)" x1="1016.0" x2="1126.0" y1="1091.0" y2="1081.0" /><line stroke="rgb(0%,0%,0%)" x1="506.0" x2="778.0" y1="32.0" y2="22.0" /><line stroke="rgb(0%,0%,0%)" x1="511.0" x2="517.0" y1="224.0" y2="344.0" /><line stroke="rgb(0%,0%,0%)" x1="961.0" x2="1045.0" y1="600.0" y2="597.0" /><line stroke="rgb(0%,0%,0%)" x1="898.0" x2="1048.0" y1="1379.0" y2="1376.0" /><line stroke="rgb(0%,0%,0%)" x1="467.0" x2="479.0" y1="163.0" y2="265.0" /><line stroke="rgb(0%,0%,0%)" x1="957.0" x2="960.0" y1="540.0" y2="579.0" /><line stroke="rgb(0%,0%,0%)" x1="1140.0" x2="1278.0" y1="1365.0" y2="1377.0" /><line stroke="rgb(0%,0%,0%)" x1="540.0" x2="547.0" y1="956.0" y2="1087.0" /><line stroke="rgb(0%,0%,0%)" x1="736.0" x2="737.0" y1="776.0" y2="859.0" /><line stroke="rgb(0%,0%,0%)" x1="1163.0" x2="1316.0" y1="1189.0" y2="1179.0" /><line stroke="rgb(0%,0%,0%)" x1="962.0" x2="964.0" y1="516.0" y2="596.0" /><line stroke="rgb(0%,0%,0%)" x1="545.0" x2="548.0" y1="851.0" y2="894.0" /><line stroke="rgb(0%,0%,0%)" x1="1020.0" x2="1146.0" y1="1086.0" y2="1077.0" /><line stroke="rgb(0%,0%,0%)" x1="480.0" x2="481.0" y1="487.0" y2="515.0" /><line stroke="rgb(0%,0%,0%)" x1="960.0" x2="1050.0" y1="597.0" y2="594.0" /><line stroke="rgb(0%,0%,0%)" x1="543.0" x2="550.0" y1="850.0" y2="937.0" /><line stroke="rgb(0%,0%,0%)" x1="1155.0" x2="1251.0" y1="791.0" y2="786.0" /><line stroke="rgb(0%,0%,0%)" x1="483.0" x2="488.0" y1="424.0" y2="558.0" /><line stroke="rgb(0%,0%,0%)" x1="1272.0" x2="1322.0" y1="1357.0" y2="1354.0" /><line stroke="rgb(0%,0%,0%)" x1="491.0" x2="491.0" y1="204.0" y2="178.0" /><line stroke="rgb(0%,0%,0%)" x1="1011.0" x2="1014.0" y1="231.0" y2="383.0" /><line stroke="rgb(0%,0%,0%)" x1="580.0" x2="584.0" y1="1296.0" y2="1343.0" /><line stroke="rgb(0%,0%,0%)" x1="1318.0" x2="1324.0" y1="1182.0" y2="1358.0" /><line stroke="rgb(0%,0%,0%)" x1="521.0" x2="531.0" y1="945.0" y2="1088.0" /><line stroke="rgb(0%,0%,0%)" x1="1155.0" x2="1156.0" y1="790.0" y2="879.0" /><line stroke="rgb(0%,0%,0%)" x1="940.0" x2="984.0" y1="766.0" y2="763.0" /><line stroke="rgb(0%,0%,0%)" x1="1014.0" x2="1051.0" y1="235.0" y2="232.0" /><line stroke="rgb(0%,0%,0%)" x1="613.0" x2="785.0" y1="1398.0" y2="1392.0" /><line stroke="rgb(0%,0%,0%)" x1="547.0" x2="655.0" y1="1388.0" y2="1386.0" /><line stroke="rgb(0%,0%,0%)" x1="1191.0" x2="1279.0" y1="1376.0" y2="1373.0" /><line stroke="rgb(0%,0%,0%)" x1="559.0" x2="563.0" y1="1083.0" y2="1159.0" /><line stroke="rgb(0%,0%,0%)" x1="733.0" x2="751.0" y1="1398.0" y2="1603.0" /><line stroke="rgb(0%,0%,0%)" x1="485.0" x2="486.0" y1="504.0" y2="557.0" /><line stroke="rgb(0%,0%,0%)" x1="548.0" x2="605.0" y1="1088.0" y2="1254.0" /><line stroke="rgb(0%,0%,0%)" x1="487.0" x2="487.0" y1="696.0" y2="648.0" /><line stroke="rgb(0%,0%,0%)" x1="1154.0" x2="1154.0" y1="881.0" y2="789.0" /><line stroke="rgb(0%,0%,0%)" x1="571.0" x2="573.0" y1="1156.0" y2="1178.0" /><line stroke="rgb(0%,0%,0%)" x1="1068.0" x2="1243.0" y1="228.0" y2="213.0" /><line stroke="rgb(0%,0%,0%)" x1="513.0" x2="523.0" y1="223.0" y2="336.0" /><line stroke="rgb(0%,0%,0%)" x1="1075.0" x2="1077.0" y1="1344.0" y2="1364.0" /><line stroke="rgb(0%,0%,0%)" x1="733.0" x2="803.0" y1="859.0" y2="858.0" /><line stroke="rgb(0%,0%,0%)" x1="757.0" x2="757.0" y1="1716.0" y2="1672.0" /><line stroke="rgb(0%,0%,0%)" x1="541.0" x2="549.0" y1="1037.0" y2="1088.0" /><line stroke="rgb(0%,0%,0%)" x1="520.0" x2="529.0" y1="939.0" y2="1066.0" /><line stroke="rgb(0%,0%,0%)" x1="733.0" x2="792.0" y1="856.0" y2="853.0" /><line stroke="rgb(0%,0%,0%)" x1="728.0" x2="1002.0" y1="781.0" y2="757.0" /><line stroke="rgb(0%,0%,0%)" x1="511.0" x2="513.0" y1="267.0" y2="291.0" /><line stroke="rgb(0%,0%,0%)" x1="582.0" x2="592.0" y1="1295.0" y2="1393.0" /><line stroke="rgb(0%,0%,0%)" x1="919.0" x2="920.0" y1="126.0" y2="66.0" /><line stroke="rgb(0%,0%,0%)" x1="1239.0" x2="1241.0" y1="37.0" y2="90.0" /><line stroke="rgb(0%,0%,0%)" x1="646.0" x2="821.0" y1="32.0" y2="23.0" /><line stroke="rgb(0%,0%,0%)" x1="1074.0" x2="1124.0" y1="1369.0" y2="1367.0" /><line stroke="rgb(0%,0%,0%)" x1="1154.0" x2="1189.0" y1="1363.0" y2="1365.0" /><line stroke="rgb(0%,0%,0%)" x1="1098.0" x2="1155.0" y1="885.0" y2="879.0" /><line stroke="rgb(0%,0%,0%)" x1="732.0" x2="733.0" y1="776.0" y2="858.0" /><line stroke="rgb(0%,0%,0%)" x1="1014.0" x2="1016.0" y1="379.0" y2="304.0" /><line stroke="rgb(0%,0%,0%)" x1="731.0" x2="745.0" y1="1456.0" y2="1524.0" /><line stroke="rgb(0%,0%,0%)" x1="516.0" x2="523.0" y1="223.0" y2="331.0" /><line stroke="rgb(0%,0%,0%)" x1="543.0" x2="544.0" y1="880.0" y2="914.0" /><line stroke="rgb(0%,0%,0%)" x1="840.0" x2="916.0" y1="130.0" y2="118.0" /><line stroke="rgb(0%,0%,0%)" x1="526.0" x2="533.0" y1="560.0" y2="664.0" /><line stroke="rgb(0%,0%,0%)" x1="1051.0" x2="1116.0" y1="15.0" y2="6.0" /><line stroke="rgb(0%,0%,0%)" x1="1150.0" x2="1155.0" y1="554.0" y2="614.0" /><line stroke="rgb(0%,0%,0%)" x1="546.0" x2="550.0" y1="851.0" y2="882.0" /><line stroke="rgb(0%,0%,0%)" x1="835.0" x2="838.0" y1="69.0" y2="125.0" /><line stroke="rgb(0%,0%,0%)" x1="464.0" x2="474.0" y1="64.0" y2="253.0" /><line stroke="rgb(0%,0%,0%)" x1="1239.0" x2="1242.0" y1="21.0" y2="79.0" /><line stroke="rgb(0%,0%,0%)" x1="582.0" x2="728.0" y1="1396.0" y2="1391.0" /><line stroke="rgb(0%,0%,0%)" x1="957.0" x2="965.0" y1="515.0" y2="596.0" /><line stroke="rgb(0%,0%,0%)" x1="729.0" x2="729.0" y1="817.0" y2="777.0" /><line stroke="rgb(0%,0%,0%)" x1="492.0" x2="496.0" y1="641.0" y2="748.0" /><line stroke="rgb(0%,0%,0%)" x1="603.0" x2="604.0" y1="897.0" y2="859.0" /><line stroke="rgb(0%,0%,0%)" x1="1227.0" x2="1276.0" y1="1373.0" y2="1377.0" /><line stroke="rgb(0%,0%,0%)" x1="921.0" x2="934.0" y1="1523.0" y2="1707.0" /><line stroke="rgb(0%,0%,0%)" x1="601.0" x2="601.0" y1="883.0" y2="860.0" /><line stroke="rgb(0%,0%,0%)" x1="1317.0" x2="1323.0" y1="1180.0" y2="1358.0" /><line stroke="rgb(0%,0%,0%)" x1="922.0" x2="979.0" y1="848.0" y2="841.0" /><line stroke="rgb(0%,0%,0%)" x1="839.0" x2="920.0" y1="127.0" y2="124.0" /><line stroke="rgb(0%,0%,0%)" x1="805.0" x2="922.0" y1="1740.0" y2="1738.0" /><line stroke="rgb(0%,0%,0%)" x1="490.0" x2="495.0" y1="677.0" y2="819.0" /><line stroke="rgb(0%,0%,0%)" x1="462.0" x2="520.0" y1="369.0" y2="339.0" /><line stroke="rgb(0%,0%,0%)" x1="609.0" x2="654.0" y1="636.0" y2="634.0" /><line stroke="rgb(0%,0%,0%)" x1="1149.0" x2="1151.0" y1="785.0" y2="881.0" /><line stroke="rgb(0%,0%,0%)" x1="1135.0" x2="1219.0" y1="10.0" y2="0.0" /><line stroke="rgb(0%,0%,0%)" x1="1241.0" x2="1243.0" y1="218.0" y2="164.0" /><line stroke="rgb(0%,0%,0%)" x1="523.0" x2="532.0" y1="958.0" y2="1088.0" /><line stroke="rgb(0%,0%,0%)" x1="467.0" x2="482.0" y1="362.0" y2="434.0" /><line stroke="rgb(0%,0%,0%)" x1="586.0" x2="610.0" y1="1320.0" y2="1229.0" /><line stroke="rgb(0%,0%,0%)" x1="1154.0" x2="1190.0" y1="1364.0" y2="1362.0" /><line stroke="rgb(0%,0%,0%)" x1="583.0" x2="593.0" y1="1296.0" y2="1393.0" /><line stroke="rgb(0%,0%,0%)" x1="1015.0" x2="1147.0" y1="1089.0" y2="1079.0" /><line stroke="rgb(0%,0%,0%)" x1="752.0" x2="818.0" y1="50.0" y2="48.0" /><line stroke="rgb(0%,0%,0%)" x1="1160.0" x2="1238.0" y1="613.0" y2="609.0" /><line stroke="rgb(0%,0%,0%)" x1="1008.0" x2="1105.0" y1="235.0" y2="227.0" /><line stroke="rgb(0%,0%,0%)" x1="751.0" x2="761.0" y1="1671.0" y2="1722.0" /><line stroke="rgb(0%,0%,0%)" x1="904.0" x2="1069.0" y1="1378.0" y2="1375.0" /><line stroke="rgb(0%,0%,0%)" x1="1241.0" x2="1242.0" y1="206.0" y2="155.0" /><line stroke="rgb(0%,0%,0%)" x1="1151.0" x2="1151.0" y1="829.0" y2="856.0" /><line stroke="rgb(0%,0%,0%)" x1="1015.0" x2="1139.0" y1="431.0" y2="427.0" /><line stroke="rgb(0%,0%,0%)" x1="991.0" x2="995.0" y1="864.0" y2="920.0" /><line stroke="rgb(0%,0%,0%)" x1="838.0" x2="840.0" y1="70.0" y2="118.0" /><line stroke="rgb(0%,0%,0%)" x1="1229.0" x2="1231.0" y1="427.0" y2="456.0" /><line stroke="rgb(0%,0%,0%)" x1="1094.0" x2="1153.0" y1="882.0" y2="877.0" /><line stroke="rgb(0%,0%,0%)" x1="596.0" x2="605.0" y1="1203.0" y2="1276.0" /><line stroke="rgb(0%,0%,0%)" x1="515.0" x2="516.0" y1="346.0" y2="304.0" /><line stroke="rgb(0%,0%,0%)" x1="524.0" x2="534.0" y1="557.0" y2="628.0" /><line stroke="rgb(0%,0%,0%)" x1="892.0" x2="893.0" y1="564.0" y2="585.0" /><line stroke="rgb(0%,0%,0%)" x1="741.0" x2="742.0" y1="1670.0" y2="1649.0" /><line stroke="rgb(0%,0%,0%)" x1="1108.0" x2="1131.0" y1="11.0" y2="10.0" /><line stroke="rgb(0%,0%,0%)" x1="1235.0" x2="1250.0" y1="100.0" y2="28.0" /><line stroke="rgb(0%,0%,0%)" x1="497.0" x2="498.0" y1="821.0" y2="851.0" /><line stroke="rgb(0%,0%,0%)" x1="934.0" x2="1024.0" y1="99.0" y2="96.0" /><line stroke="rgb(0%,0%,0%)" x1="562.0" x2="569.0" y1="1100.0" y2="1200.0" /><line stroke="rgb(0%,0%,0%)" x1="925.0" x2="929.0" y1="1559.0" y2="1608.0" /><line stroke="rgb(0%,0%,0%)" x1="1015.0" x2="1019.0" y1="434.0" y2="399.0" /><line stroke="rgb(0%,0%,0%)" x1="824.0" x2="828.0" y1="377.0" y2="407.0" /><line stroke="rgb(0%,0%,0%)" x1="1155.0" x2="1156.0" y1="880.0" y2="794.0" /><line stroke="rgb(0%,0%,0%)" x1="960.0" x2="1050.0" y1="596.0" y2="593.0" /><line stroke="rgb(0%,0%,0%)" x1="1153.0" x2="1155.0" y1="1114.0" y2="1213.0" /><line stroke="rgb(0%,0%,0%)" x1="462.0" x2="475.0" y1="112.0" y2="175.0" /><line stroke="rgb(0%,0%,0%)" x1="519.0" x2="522.0" y1="939.0" y2="986.0" /><line stroke="rgb(0%,0%,0%)" x1="1252.0" x2="1307.0" y1="1184.0" y2="1180.0" /><line stroke="rgb(0%,0%,0%)" x1="966.0" x2="999.0" y1="1347.0" y2="1350.0" /><line stroke="rgb(0%,0%,0%)" x1="922.0" x2="923.0" y1="1538.0" y2="1575.0" /><line stroke="rgb(0%,0%,0%)" x1="1078.0" x2="1082.0" y1="1342.0" y2="1369.0" /><line stroke="rgb(0%,0%,0%)" x1="1240.0" x2="1243.0" y1="123.0" y2="24.0" /><line stroke="rgb(0%,0%,0%)" x1="463.0" x2="469.0" y1="65.0" y2="172.0" /><line stroke="rgb(0%,0%,0%)" x1="738.0" x2="740.0" y1="1625.0" y2="1662.0" /><line stroke="rgb(0%,0%,0%)" x1="1167.0" x2="1168.0" y1="1200.0" y2="1180.0" /><line stroke="rgb(0%,0%,0%)" x1="794.0" x2="839.0" y1="863.0" y2="858.0" /><line stroke="rgb(0%,0%,0%)" x1="991.0" x2="996.0" y1="920.0" y2="884.0" /><line stroke="rgb(0%,0%,0%)" x1="535.0" x2="543.0" y1="950.0" y2="1028.0" /><line stroke="rgb(0%,0%,0%)" x1="924.0" x2="924.0" y1="1707.0" y2="1737.0" /><line stroke="rgb(0%,0%,0%)" x1="1007.0" x2="1008.0" y1="1002.0" y2="929.0" /><line stroke="rgb(0%,0%,0%)" x1="916.0" x2="916.0" y1="1517.0" y2="1441.0" /><line stroke="rgb(0%,0%,0%)" x1="1198.0" x2="1274.0" y1="1379.0" y2="1368.0" /><line stroke="rgb(0%,0%,0%)" x1="1242.0" x2="1252.0" y1="683.0" y2="780.0" /><line stroke="rgb(0%,0%,0%)" x1="970.0" x2="1003.0" y1="845.0" y2="894.0" /><line stroke="rgb(0%,0%,0%)" x1="908.0" x2="921.0" y1="1381.0" y2="1556.0" /><line stroke="rgb(0%,0%,0%)" x1="629.0" x2="657.0" y1="643.0" y2="641.0" /><line stroke="rgb(0%,0%,0%)" x1="482.0" x2="505.0" y1="44.0" y2="43.0" /><line stroke="rgb(0%,0%,0%)" x1="1275.0" x2="1317.0" y1="1360.0" y2="1359.0" /><line stroke="rgb(0%,0%,0%)" x1="474.0" x2="482.0" y1="357.0" y2="423.0" /><line stroke="rgb(0%,0%,0%)" x1="764.0" x2="926.0" y1="1745.0" y2="1737.0" /><line stroke="rgb(0%,0%,0%)" x1="832.0" x2="838.0" y1="403.0" y2="382.0" /><line stroke="rgb(0%,0%,0%)" x1="728.0" x2="940.0" y1="782.0" y2="767.0" /><line stroke="rgb(0%,0%,0%)" x1="1037.0" x2="1064.0" y1="40.0" y2="40.0" /><line stroke="rgb(0%,0%,0%)" x1="750.0" x2="764.0" y1="1671.0" y2="1744.0" /><line stroke="rgb(0%,0%,0%)" x1="1037.0" x2="1061.0" y1="37.0" y2="36.0" /><line stroke="rgb(0%,0%,0%)" x1="895.0" x2="896.0" y1="562.0" y2="586.0" /><line stroke="rgb(0%,0%,0%)" x1="1021.0" x2="1024.0" y1="101.0" y2="12.0" /><line stroke="rgb(0%,0%,0%)" x1="1239.0" x2="1249.0" y1="174.0" y2="28.0" /><line stroke="rgb(0%,0%,0%)" x1="516.0" x2="517.0" y1="345.0" y2="315.0" /><line stroke="rgb(0%,0%,0%)" x1="728.0" x2="733.0" y1="1390.0" y2="1481.0" /><line stroke="rgb(0%,0%,0%)" x1="1139.0" x2="1164.0" y1="1155.0" y2="1196.0" /><line stroke="rgb(0%,0%,0%)" x1="740.0" x2="829.0" y1="858.0" y2="860.0" /><line stroke="rgb(0%,0%,0%)" x1="1043.0" x2="1205.0" y1="15.0" y2="1.0" /><line stroke="rgb(0%,0%,0%)" x1="581.0" x2="590.0" y1="1295.0" y2="1391.0" /><line stroke="rgb(0%,0%,0%)" x1="522.0" x2="526.0" y1="1017.0" y2="1085.0" /><line stroke="rgb(0%,0%,0%)" x1="822.0" x2="823.0" y1="408.0" y2="382.0" /><line stroke="rgb(0%,0%,0%)" x1="457.0" x2="525.0" y1="649.0" y2="638.0" /><line stroke="rgb(0%,0%,0%)" x1="479.0" x2="487.0" y1="422.0" y2="558.0" /></svg>