<?xml version="1.0" encoding="utf-8" ?>
<svg baseProfile="tiny" height="464" version="1.2" width="861" xmlns="http://www.w3.org/2000/svg" xmlns:ev="http://www.w3.org/2001/xml-events" xmlns:xlink="http://www.w3.org/1999/xlink"><defs /><line stroke="rgb(0%,0%,0%)" x1="490.0" x2="763.0" y1="159.0" y2="145.0" /><line stroke="rgb(0%,0%,0%)" x1="492.0" x2="728.0" y1="164.0" y2="151.0" /><line stroke="rgb(0%,0%,0%)" x1="335.0" x2="401.0" y1="27.0" y2="5.0" /><line stroke="rgb(0%,0%,0%)" x1="337.0" x2="509.0" y1="371.0" y2="362.0" /><line stroke="rgb(0%,0%,0%)" x1="326.0" x2="519.0" y1="375.0" y2="365.0" /><line stroke="rgb(0%,0%,0%)" x1="66.0" x2="226.0" y1="117.0" y2="62.0" /><line stroke="rgb(0%,0%,0%)" x1="64.0" x2="231.0" y1="121.0" y2="64.0" /><line stroke="rgb(0%,0%,0%)" x1="50.0" x2="132.0" y1="292.0" y2="269.0" /><line stroke="rgb(0%,0%,0%)" x1="199.0" x2="351.0" y1="254.0" y2="202.0" /><line stroke="rgb(0%,0%,0%)" x1="2.0" x2="63.0" y1="155.0" y2="324.0" /><line stroke="rgb(0%,0%,0%)" x1="617.0" x2="628.0" y1="210.0" y2="420.0" /><line stroke="rgb(0%,0%,0%)" x1="615.0" x2="620.0" y1="211.0" y2="354.0" /><line stroke="rgb(0%,0%,0%)" x1="847.0" x2="854.0" y1="140.0" y2="358.0" /><line stroke="rgb(0%,0%,0%)" x1="616.0" x2="792.0" y1="211.0" y2="198.0" /><line stroke="rgb(0%,0%,0%)" x1="337.0" x2="348.0" y1="6.0" y2="206.0" /><line stroke="rgb(0%,0%,0%)" x1="787.0" x2="802.0" y1="198.0" y2="407.0" /><line stroke="rgb(0%,0%,0%)" x1="18.0" x2="48.0" y1="207.0" y2="290.0" /><line stroke="rgb(0%,0%,0%)" x1="335.0" x2="339.0" y1="6.0" y2="127.0" /><line stroke="rgb(0%,0%,0%)" x1="206.0" x2="352.0" y1="253.0" y2="205.0" /><line stroke="rgb(0%,0%,0%)" x1="488.0" x2="491.0" y1="32.0" y2="191.0" /><line stroke="rgb(0%,0%,0%)" x1="650.0" x2="783.0" y1="154.0" y2="147.0" /><line stroke="rgb(0%,0%,0%)" x1="50.0" x2="129.0" y1="291.0" y2="266.0" /><line stroke="rgb(0%,0%,0%)" x1="0.0" x2="90.0" y1="154.0" y2="402.0" /><line stroke="rgb(0%,0%,0%)" x1="786.0" x2="804.0" y1="141.0" y2="408.0" /><line stroke="rgb(0%,0%,0%)" x1="521.0" x2="593.0" y1="426.0" y2="423.0" /><line stroke="rgb(0%,0%,0%)" x1="852.0" x2="855.0" y1="358.0" y2="144.0" /><line stroke="rgb(0%,0%,0%)" x1="330.0" x2="485.0" y1="11.0" y2="5.0" /><line stroke="rgb(0%,0%,0%)" x1="485.0" x2="487.0" y1="89.0" y2="8.0" /><line stroke="rgb(0%,0%,0%)" x1="620.0" x2="786.0" y1="213.0" y2="202.0" /><line stroke="rgb(0%,0%,0%)" x1="517.0" x2="629.0" y1="422.0" y2="416.0" /><line stroke="rgb(0%,0%,0%)" x1="64.0" x2="95.0" y1="120.0" y2="210.0" /><line stroke="rgb(0%,0%,0%)" x1="5.0" x2="93.0" y1="160.0" y2="402.0" /><line stroke="rgb(0%,0%,0%)" x1="790.0" x2="852.0" y1="145.0" y2="142.0" /><line stroke="rgb(0%,0%,0%)" x1="347.0" x2="351.0" y1="131.0" y2="206.0" /><line stroke="rgb(0%,0%,0%)" x1="851.0" x2="851.0" y1="357.0" y2="245.0" /><line stroke="rgb(0%,0%,0%)" x1="341.0" x2="363.0" y1="312.0" y2="376.0" /><line stroke="rgb(0%,0%,0%)" x1="854.0" x2="856.0" y1="303.0" y2="149.0" /><line stroke="rgb(0%,0%,0%)" x1="336.0" x2="484.0" y1="6.0" y2="3.0" /><line stroke="rgb(0%,0%,0%)" x1="483.0" x2="496.0" y1="7.0" y2="190.0" /><line stroke="rgb(0%,0%,0%)" x1="67.0" x2="96.0" y1="121.0" y2="207.0" /><line stroke="rgb(0%,0%,0%)" x1="209.0" x2="308.0" y1="238.0" y2="231.0" /><line stroke="rgb(0%,0%,0%)" x1="200.0" x2="244.0" y1="256.0" y2="242.0" /><line stroke="rgb(0%,0%,0%)" x1="321.0" x2="519.0" y1="377.0" y2="366.0" /><line stroke="rgb(0%,0%,0%)" x1="395.0" x2="487.0" y1="114.0" y2="101.0" /><line stroke="rgb(0%,0%,0%)" x1="255.0" x2="354.0" y1="399.0" y2="367.0" /><line stroke="rgb(0%,0%,0%)" x1="770.0" x2="853.0" y1="147.0" y2="143.0" /><line stroke="rgb(0%,0%,0%)" x1="376.0" x2="483.0" y1="3.0" y2="8.0" /><line stroke="rgb(0%,0%,0%)" x1="486.0" x2="489.0" y1="87.0" y2="138.0" /><line stroke="rgb(0%,0%,0%)" x1="242.0" x2="257.0" y1="353.0" y2="400.0" /><line stroke="rgb(0%,0%,0%)" x1="236.0" x2="249.0" y1="350.0" y2="388.0" /><line stroke="rgb(0%,0%,0%)" x1="64.0" x2="80.0" y1="315.0" y2="359.0" /><line stroke="rgb(0%,0%,0%)" x1="522.0" x2="605.0" y1="421.0" y2="417.0" /><line stroke="rgb(0%,0%,0%)" x1="530.0" x2="629.0" y1="425.0" y2="420.0" /><line stroke="rgb(0%,0%,0%)" x1="620.0" x2="627.0" y1="346.0" y2="414.0" /><line stroke="rgb(0%,0%,0%)" x1="337.0" x2="354.0" y1="317.0" y2="369.0" /><line stroke="rgb(0%,0%,0%)" x1="122.0" x2="228.0" y1="98.0" y2="62.0" /><line stroke="rgb(0%,0%,0%)" x1="688.0" x2="789.0" y1="209.0" y2="202.0" /><line stroke="rgb(0%,0%,0%)" x1="775.0" x2="846.0" y1="141.0" y2="139.0" /><line stroke="rgb(0%,0%,0%)" x1="227.0" x2="234.0" y1="66.0" y2="158.0" /><line stroke="rgb(0%,0%,0%)" x1="620.0" x2="792.0" y1="211.0" y2="199.0" /><line stroke="rgb(0%,0%,0%)" x1="198.0" x2="256.0" y1="243.0" y2="223.0" /><line stroke="rgb(0%,0%,0%)" x1="260.0" x2="356.0" y1="400.0" y2="371.0" /><line stroke="rgb(0%,0%,0%)" x1="198.0" x2="253.0" y1="242.0" y2="238.0" /><line stroke="rgb(0%,0%,0%)" x1="789.0" x2="844.0" y1="140.0" y2="138.0" /><line stroke="rgb(0%,0%,0%)" x1="270.0" x2="356.0" y1="398.0" y2="372.0" /><line stroke="rgb(0%,0%,0%)" x1="156.0" x2="203.0" y1="356.0" y2="339.0" /><line stroke="rgb(0%,0%,0%)" x1="329.0" x2="345.0" y1="318.0" y2="371.0" /><line stroke="rgb(0%,0%,0%)" x1="619.0" x2="621.0" y1="216.0" y2="293.0" /></svg>