<?xml version="1.0" encoding="utf-8" ?>
<svg baseProfile="tiny" height="582" version="1.2" width="1122" xmlns="http://www.w3.org/2000/svg" xmlns:ev="http://www.w3.org/2001/xml-events" xmlns:xlink="http://www.w3.org/1999/xlink"><defs /><line stroke="rgb(0%,0%,0%)" x1="72.0" x2="581.0" y1="275.0" y2="460.0" /><line stroke="rgb(0%,0%,0%)" x1="911.0" x2="1118.0" y1="563.0" y2="577.0" /><line stroke="rgb(0%,0%,0%)" x1="230.0" x2="297.0" y1="267.0" y2="81.0" /><line stroke="rgb(0%,0%,0%)" x1="132.0" x2="238.0" y1="300.0" y2="337.0" /><line stroke="rgb(0%,0%,0%)" x1="684.0" x2="833.0" y1="545.0" y2="558.0" /><line stroke="rgb(0%,0%,0%)" x1="94.0" x2="299.0" y1="4.0" y2="75.0" /><line stroke="rgb(0%,0%,0%)" x1="376.0" x2="471.0" y1="383.0" y2="136.0" /><line stroke="rgb(0%,0%,0%)" x1="910.0" x2="1117.0" y1="566.0" y2="580.0" /><line stroke="rgb(0%,0%,0%)" x1="4.0" x2="469.0" y1="251.0" y2="420.0" /><line stroke="rgb(0%,0%,0%)" x1="268.0" x2="297.0" y1="62.0" y2="73.0" /><line stroke="rgb(0%,0%,0%)" x1="346.0" x2="581.0" y1="372.0" y2="457.0" /><line stroke="rgb(0%,0%,0%)" x1="255.0" x2="301.0" y1="206.0" y2="78.0" /><line stroke="rgb(0%,0%,0%)" x1="372.0" x2="459.0" y1="382.0" y2="165.0" /><line stroke="rgb(0%,0%,0%)" x1="929.0" x2="1059.0" y1="407.0" y2="420.0" /><line stroke="rgb(0%,0%,0%)" x1="789.0" x2="918.0" y1="552.0" y2="536.0" /><line stroke="rgb(0%,0%,0%)" x1="566.0" x2="753.0" y1="341.0" y2="402.0" /><line stroke="rgb(0%,0%,0%)" x1="688.0" x2="1060.0" y1="395.0" y2="421.0" /><line stroke="rgb(0%,0%,0%)" x1="94.0" x2="267.0" y1="0.0" y2="60.0" /><line stroke="rgb(0%,0%,0%)" x1="764.0" x2="877.0" y1="392.0" y2="416.0" /><line stroke="rgb(0%,0%,0%)" x1="512.0" x2="559.0" y1="311.0" y2="328.0" /><line stroke="rgb(0%,0%,0%)" x1="4.0" x2="179.0" y1="252.0" y2="316.0" /><line stroke="rgb(0%,0%,0%)" x1="844.0" x2="852.0" y1="475.0" y2="383.0" /><line stroke="rgb(0%,0%,0%)" x1="721.0" x2="867.0" y1="554.0" y2="547.0" /><line stroke="rgb(0%,0%,0%)" x1="6.0" x2="59.0" y1="256.0" y2="103.0" /><line stroke="rgb(0%,0%,0%)" x1="691.0" x2="753.0" y1="396.0" y2="400.0" /><line stroke="rgb(0%,0%,0%)" x1="1053.0" x2="1062.0" y1="513.0" y2="424.0" /><line stroke="rgb(0%,0%,0%)" x1="94.0" x2="262.0" y1="3.0" y2="61.0" /><line stroke="rgb(0%,0%,0%)" x1="5.0" x2="121.0" y1="254.0" y2="296.0" /><line stroke="rgb(0%,0%,0%)" x1="455.0" x2="578.0" y1="411.0" y2="455.0" /><line stroke="rgb(0%,0%,0%)" x1="172.0" x2="227.0" y1="310.0" y2="330.0" /><line stroke="rgb(0%,0%,0%)" x1="513.0" x2="730.0" y1="316.0" y2="404.0" /><line stroke="rgb(0%,0%,0%)" x1="232.0" x2="397.0" y1="268.0" y2="331.0" /><line stroke="rgb(0%,0%,0%)" x1="1049.0" x2="1058.0" y1="510.0" y2="419.0" /><line stroke="rgb(0%,0%,0%)" x1="569.0" x2="624.0" y1="348.0" y2="365.0" /><line stroke="rgb(0%,0%,0%)" x1="1006.0" x2="1061.0" y1="418.0" y2="422.0" /><line stroke="rgb(0%,0%,0%)" x1="474.0" x2="564.0" y1="136.0" y2="170.0" /><line stroke="rgb(0%,0%,0%)" x1="94.0" x2="275.0" y1="1.0" y2="64.0" /><line stroke="rgb(0%,0%,0%)" x1="60.0" x2="75.0" y1="102.0" y2="65.0" /><line stroke="rgb(0%,0%,0%)" x1="232.0" x2="394.0" y1="270.0" y2="332.0" /><line stroke="rgb(0%,0%,0%)" x1="397.0" x2="472.0" y1="332.0" y2="136.0" /><line stroke="rgb(0%,0%,0%)" x1="324.0" x2="581.0" y1="365.0" y2="458.0" /><line stroke="rgb(0%,0%,0%)" x1="248.0" x2="300.0" y1="229.0" y2="84.0" /><line stroke="rgb(0%,0%,0%)" x1="565.0" x2="696.0" y1="344.0" y2="376.0" /><line stroke="rgb(0%,0%,0%)" x1="4.0" x2="40.0" y1="249.0" y2="154.0" /><line stroke="rgb(0%,0%,0%)" x1="567.0" x2="626.0" y1="347.0" y2="365.0" /><line stroke="rgb(0%,0%,0%)" x1="684.0" x2="854.0" y1="546.0" y2="549.0" /><line stroke="rgb(0%,0%,0%)" x1="683.0" x2="737.0" y1="549.0" y2="553.0" /><line stroke="rgb(0%,0%,0%)" x1="844.0" x2="920.0" y1="420.0" y2="443.0" /><line stroke="rgb(0%,0%,0%)" x1="572.0" x2="680.0" y1="492.0" y2="490.0" /><line stroke="rgb(0%,0%,0%)" x1="500.0" x2="561.0" y1="142.0" y2="164.0" /><line stroke="rgb(0%,0%,0%)" x1="838.0" x2="847.0" y1="473.0" y2="381.0" /><line stroke="rgb(0%,0%,0%)" x1="688.0" x2="722.0" y1="392.0" y2="407.0" /><line stroke="rgb(0%,0%,0%)" x1="688.0" x2="751.0" y1="383.0" y2="407.0" /><line stroke="rgb(0%,0%,0%)" x1="857.0" x2="919.0" y1="425.0" y2="444.0" /><line stroke="rgb(0%,0%,0%)" x1="848.0" x2="893.0" y1="546.0" y2="543.0" /><line stroke="rgb(0%,0%,0%)" x1="234.0" x2="325.0" y1="272.0" y2="307.0" /><line stroke="rgb(0%,0%,0%)" x1="856.0" x2="861.0" y1="475.0" y2="417.0" /><line stroke="rgb(0%,0%,0%)" x1="689.0" x2="692.0" y1="550.0" y2="492.0" /><line stroke="rgb(0%,0%,0%)" x1="684.0" x2="686.0" y1="551.0" y2="492.0" /><line stroke="rgb(0%,0%,0%)" x1="218.0" x2="320.0" y1="332.0" y2="364.0" /><line stroke="rgb(0%,0%,0%)" x1="716.0" x2="926.0" y1="554.0" y2="540.0" /><line stroke="rgb(0%,0%,0%)" x1="764.0" x2="922.0" y1="390.0" y2="435.0" /><line stroke="rgb(0%,0%,0%)" x1="535.0" x2="572.0" y1="326.0" y2="337.0" /><line stroke="rgb(0%,0%,0%)" x1="1116.0" x2="1121.0" y1="570.0" y2="514.0" /><line stroke="rgb(0%,0%,0%)" x1="661.0" x2="692.0" y1="364.0" y2="374.0" /><line stroke="rgb(0%,0%,0%)" x1="687.0" x2="716.0" y1="404.0" y2="412.0" /><line stroke="rgb(0%,0%,0%)" x1="764.0" x2="922.0" y1="391.0" y2="436.0" /><line stroke="rgb(0%,0%,0%)" x1="235.0" x2="255.0" y1="267.0" y2="210.0" /><line stroke="rgb(0%,0%,0%)" x1="1035.0" x2="1084.0" y1="570.0" y2="579.0" /><line stroke="rgb(0%,0%,0%)" x1="511.0" x2="746.0" y1="314.0" y2="409.0" /><line stroke="rgb(0%,0%,0%)" x1="498.0" x2="581.0" y1="424.0" y2="464.0" /><line stroke="rgb(0%,0%,0%)" x1="573.0" x2="693.0" y1="479.0" y2="498.0" /><line stroke="rgb(0%,0%,0%)" x1="852.0" x2="858.0" y1="475.0" y2="419.0" /><line stroke="rgb(0%,0%,0%)" x1="660.0" x2="692.0" y1="489.0" y2="500.0" /><line stroke="rgb(0%,0%,0%)" x1="685.0" x2="767.0" y1="551.0" y2="547.0" /><line stroke="rgb(0%,0%,0%)" x1="517.0" x2="569.0" y1="313.0" y2="333.0" /><line stroke="rgb(0%,0%,0%)" x1="843.0" x2="907.0" y1="428.0" y2="451.0" /><line stroke="rgb(0%,0%,0%)" x1="767.0" x2="922.0" y1="394.0" y2="438.0" /><line stroke="rgb(0%,0%,0%)" x1="686.0" x2="797.0" y1="552.0" y2="550.0" /><line stroke="rgb(0%,0%,0%)" x1="162.0" x2="336.0" y1="307.0" y2="370.0" /></svg>